<svg width="55" height="54" viewBox="0 0 55 54" fill="none" xmlns="http://www.w3.org/2000/svg">
<g clip-path="url(#clip0_24198_553)">
<path fill-rule="evenodd" clip-rule="evenodd" d="M13.518 54.0004H1.9725C1.67987 53.9975 1.4002 53.8793 1.19428 53.6713C0.988358 53.4634 0.872842 53.1826 0.872842 52.89C0.872842 52.5973 0.988358 52.3165 1.19428 52.1086C1.4002 51.9006 1.67987 51.7824 1.9725 51.7795H13.518C13.6647 51.7781 13.8102 51.8058 13.9462 51.8609C14.0822 51.9161 14.2059 51.9977 14.3102 52.1009C14.4144 52.2042 14.4972 52.3271 14.5537 52.4625C14.6102 52.5979 14.6393 52.7432 14.6393 52.89C14.6393 53.0367 14.6102 53.182 14.5537 53.3174C14.4972 53.4529 14.4144 53.5757 14.3102 53.679C14.2059 53.7823 14.0822 53.8638 13.9462 53.919C13.8102 53.9741 13.6647 54.0018 13.518 54.0004ZM0.861703 48.8932C0.862289 48.5989 0.979483 48.3169 1.18761 48.1089C1.39574 47.9009 1.67783 47.7838 1.97208 47.7834H13.518C13.8124 47.7834 14.0947 47.9004 14.3029 48.1085C14.5111 48.3167 14.628 48.5991 14.628 48.8935C14.628 49.1879 14.5111 49.4702 14.3029 49.6784C14.0947 49.8866 13.8124 50.0035 13.518 50.0035H1.9725C1.67819 50.003 1.3961 49.8858 1.18799 49.6777C0.979884 49.4696 0.86271 49.1875 0.862125 48.8932H0.861703ZM1.97208 43.7858H13.518C13.8125 43.7858 14.0949 43.9028 14.3032 44.1111C14.5114 44.3193 14.6284 44.6018 14.6284 44.8963C14.6284 45.1908 14.5114 45.4733 14.3032 45.6815C14.0949 45.8898 13.8125 46.0068 13.518 46.0068H1.9725C1.67798 46.0068 1.39553 45.8898 1.18727 45.6815C0.979016 45.4733 0.86202 45.1908 0.86202 44.8963C0.86202 44.6018 0.979016 44.3193 1.18727 44.1111C1.39553 43.9028 1.67798 43.7858 1.9725 43.7858H1.97208ZM33.2796 54.0004H21.7338C21.587 54.0018 21.4415 53.9741 21.3055 53.919C21.1695 53.8638 21.0458 53.7823 20.9415 53.679C20.8373 53.5757 20.7545 53.4529 20.698 53.3174C20.6415 53.182 20.6125 53.0367 20.6125 52.89C20.6125 52.7432 20.6415 52.5979 20.698 52.4625C20.7545 52.3271 20.8373 52.2042 20.9415 52.1009C21.0458 51.9977 21.1695 51.9161 21.3055 51.8609C21.4415 51.8058 21.587 51.7781 21.7338 51.7795H33.2796C33.4264 51.7781 33.5719 51.8058 33.7079 51.8609C33.8439 51.9161 33.9676 51.9977 34.0718 52.1009C34.1761 52.2042 34.2589 52.3271 34.3154 52.4625C34.3719 52.5979 34.4009 52.7432 34.4009 52.89C34.4009 53.0367 34.3719 53.182 34.3154 53.3174C34.2589 53.4529 34.1761 53.5757 34.0718 53.679C33.9676 53.7823 33.8439 53.8638 33.7079 53.919C33.5719 53.9741 33.4264 54.0018 33.2796 54.0004ZM20.6234 48.8932C20.624 48.5989 20.7412 48.3169 20.9494 48.1089C21.1575 47.9009 21.4396 47.7838 21.7339 47.7834H33.2796C33.574 47.7834 33.8564 47.9004 34.0646 48.1085C34.2727 48.3167 34.3897 48.5991 34.3897 48.8935C34.3897 49.1879 34.2727 49.4702 34.0646 49.6784C33.8564 49.8866 33.574 50.0035 33.2796 50.0035H21.7338C21.4395 50.0029 21.1574 49.8857 20.9493 49.6776C20.7412 49.4695 20.624 49.1875 20.6234 48.8932ZM20.6234 44.8959C20.624 44.6016 20.7412 44.3195 20.9493 44.1113C21.1574 43.9032 21.4395 43.786 21.7339 43.7854H33.2796C33.5742 43.7854 33.8566 43.9024 34.0649 44.1107C34.2731 44.3189 34.3901 44.6014 34.3901 44.8959C34.3901 45.1904 34.2731 45.4729 34.0649 45.6811C33.8566 45.8894 33.5742 46.0064 33.2796 46.0064H21.7338C21.4395 46.0059 21.1574 45.8888 20.9493 45.6807C20.7412 45.4727 20.624 45.1906 20.6234 44.8963V44.8959ZM20.6234 40.8986C20.624 40.6044 20.7413 40.3224 20.9494 40.1144C21.1575 39.9064 21.4396 39.7894 21.7339 39.789H33.2796C33.574 39.789 33.8564 39.9059 34.0646 40.1141C34.2727 40.3223 34.3897 40.6046 34.3897 40.8991C34.3897 41.1935 34.2727 41.4758 34.0646 41.684C33.8564 41.8922 33.574 42.0091 33.2796 42.0091H21.7338C21.4396 42.0085 21.1576 41.8914 20.9496 41.6834C20.7415 41.4755 20.6242 41.1936 20.6234 40.8995V40.8986ZM21.7339 35.7923H33.2796C33.4263 35.7908 33.5718 35.8185 33.7077 35.8736C33.8437 35.9288 33.9673 36.0103 34.0715 36.1135C34.1758 36.2167 34.2585 36.3396 34.315 36.475C34.3714 36.6103 34.4005 36.7556 34.4005 36.9023C34.4005 37.0489 34.3714 37.1942 34.315 37.3296C34.2585 37.4649 34.1758 37.5878 34.0715 37.691C33.9673 37.7942 33.8437 37.8758 33.7077 37.9309C33.5718 37.986 33.4263 38.0137 33.2796 38.0123H21.7338C21.5871 38.0137 21.4416 37.986 21.3056 37.9309C21.1697 37.8758 21.0461 37.7942 20.9418 37.691C20.8376 37.5878 20.7549 37.4649 20.6984 37.3296C20.642 37.1942 20.6129 37.0489 20.6129 36.9023C20.6129 36.7556 20.642 36.6103 20.6984 36.475C20.7549 36.3396 20.8376 36.2167 20.9418 36.1135C21.0461 36.0103 21.1697 35.9288 21.3056 35.8736C21.4416 35.8185 21.5872 35.7908 21.7339 35.7923ZM41.495 27.7986H53.0412C53.1879 27.7971 53.3335 27.8248 53.4695 27.88C53.6055 27.9351 53.7292 28.0167 53.8334 28.1199C53.9377 28.2232 54.0205 28.3461 54.0769 28.4815C54.1334 28.617 54.1625 28.7623 54.1625 28.909C54.1625 29.0557 54.1334 29.201 54.0769 29.3365C54.0205 29.4719 53.9377 29.5948 53.8334 29.698C53.7292 29.8013 53.6055 29.8829 53.4695 29.938C53.3335 29.9932 53.1879 30.0209 53.0412 30.0194H41.4949C41.2023 30.0166 40.9226 29.8983 40.7167 29.6904C40.5108 29.4825 40.3953 29.2016 40.3953 28.909C40.3953 28.6164 40.5108 28.3355 40.7167 28.1276C40.9226 27.9197 41.2023 27.8014 41.4949 27.7986H41.495ZM54.1519 32.9066C54.1516 33.201 54.0345 33.4833 53.8263 33.6915C53.6181 33.8997 53.3358 34.0168 53.0414 34.0171H41.4949C41.2023 34.0143 40.9226 33.896 40.7167 33.6881C40.5108 33.4801 40.3953 33.1993 40.3953 32.9067C40.3953 32.614 40.5108 32.3332 40.7167 32.1253C40.9226 31.9174 41.2023 31.7991 41.4949 31.7963H53.0412C53.3357 31.7965 53.618 31.9136 53.8262 32.1217C54.0344 32.3299 54.1516 32.6122 54.1519 32.9066ZM54.1519 36.9039C54.1515 37.1982 54.0344 37.4804 53.8262 37.6884C53.618 37.8965 53.3357 38.0134 53.0414 38.0135H41.4949C41.2024 38.0107 40.9228 37.8925 40.717 37.6846C40.5111 37.4768 40.3957 37.1961 40.3957 36.9035C40.3957 36.611 40.5111 36.3303 40.717 36.1224C40.9228 35.9146 41.2024 35.7964 41.4949 35.7935H53.0412C53.3357 35.7936 53.6181 35.9106 53.8264 36.1188C54.0346 36.327 54.1517 36.6094 54.1519 36.9039ZM54.1519 40.8999C54.1516 41.1943 54.0345 41.4766 53.8263 41.6848C53.6181 41.8929 53.3358 42.01 53.0414 42.0104H41.4949C41.2005 42.0104 40.9182 41.8934 40.71 41.6852C40.5018 41.4771 40.3849 41.1947 40.3849 40.9003C40.3849 40.6059 40.5018 40.3236 40.71 40.1154C40.9182 39.9072 41.2005 39.7903 41.4949 39.7903H53.0412C53.3355 39.7903 53.6177 39.9072 53.826 40.1151C54.0342 40.3231 54.1514 40.6052 54.1519 40.8995V40.8999ZM54.1519 44.8972C54.1517 45.1916 54.0346 45.474 53.8264 45.6822C53.6182 45.8904 53.3359 46.0075 53.0414 46.0076H41.4949C41.2004 46.0076 40.9179 45.8906 40.7097 45.6824C40.5014 45.4741 40.3844 45.1917 40.3844 44.8972C40.3844 44.6026 40.5014 44.3202 40.7097 44.1119C40.9179 43.9037 41.2004 43.7867 41.4949 43.7867H53.0412C53.3355 43.787 53.6177 43.9039 53.8259 44.1119C54.0341 44.3199 54.1513 44.602 54.1519 44.8963V44.8972ZM54.1519 48.8944C54.1511 49.1886 54.0338 49.4704 53.8256 49.6782C53.6174 49.886 53.3354 50.0029 53.0412 50.0031H41.4949C41.2005 50.0031 40.9182 49.8862 40.71 49.678C40.5018 49.4698 40.3849 49.1875 40.3849 48.8931C40.3849 48.5987 40.5018 48.3163 40.71 48.1081C40.9182 47.8999 41.2005 47.783 41.4949 47.783H53.0412C53.3357 47.7831 53.618 47.9001 53.8263 48.1082C54.0345 48.3164 54.1516 48.5987 54.1519 48.8932V48.8944ZM53.0412 54.0004H41.4949C41.2023 53.9975 40.9226 53.8793 40.7167 53.6713C40.5108 53.4634 40.3953 53.1826 40.3953 52.89C40.3953 52.5973 40.5108 52.3165 40.7167 52.1086C40.9226 51.9006 41.2023 51.7824 41.4949 51.7795H53.0412C53.1879 51.7781 53.3335 51.8058 53.4695 51.8609C53.6055 51.9161 53.7292 51.9977 53.8334 52.1009C53.9377 52.2042 54.0205 52.3271 54.0769 52.4625C54.1334 52.5979 54.1625 52.7432 54.1625 52.89C54.1625 53.0367 54.1334 53.182 54.0769 53.3174C54.0205 53.4529 53.9377 53.5757 53.8334 53.679C53.7292 53.7823 53.6055 53.8638 53.4695 53.919C53.3335 53.9741 53.1879 54.0018 53.0412 54.0004ZM3.93327 32.5806C3.70805 32.5899 3.49478 32.6844 3.33667 32.845C3.17856 33.0057 3.08744 33.2205 3.0818 33.4458C3.07615 33.6711 3.15639 33.8902 3.30626 34.0585C3.45612 34.2269 3.6644 34.332 3.88887 34.3525C5.39194 34.4898 6.88921 34.558 8.38068 34.5571C16.3349 34.5566 24.1718 32.6383 31.2271 28.965C38.2824 25.2917 44.3481 19.9716 48.9101 13.4557L51.7919 15.8418C51.917 15.9457 52.0682 16.0133 52.2291 16.0372C52.39 16.061 52.5543 16.0402 52.7042 15.977C52.8541 15.9138 52.9837 15.8107 53.0789 15.6789C53.1741 15.547 53.2313 15.3916 53.2442 15.2294L54.3935 0.960148C54.4048 0.817831 54.3817 0.674884 54.3261 0.543405C54.2704 0.411926 54.1839 0.295784 54.0739 0.204808C53.9639 0.113832 53.8336 0.0506983 53.694 0.0207508C53.5544 -0.00919671 53.4096 -0.00507706 53.272 0.0327611L39.4676 3.82647C39.3112 3.86977 39.1696 3.95509 39.0582 4.07316C38.9469 4.19123 38.87 4.33755 38.8359 4.49623C38.8018 4.65491 38.8118 4.8199 38.8649 4.97329C38.9179 5.12667 39.012 5.2626 39.1368 5.36632L43.305 8.81578C35.1789 22.8384 20.1616 31.9233 3.93348 32.5801L3.93327 32.5806ZM12.1673 4.12231C14.4543 4.1224 16.69 4.80066 18.5915 6.07133C20.4931 7.342 21.9751 9.14801 22.8502 11.261C23.7254 13.3739 23.9543 15.699 23.508 17.942C23.0618 20.1851 21.9604 22.2454 20.3431 23.8625C18.7259 25.4796 16.6655 26.5809 14.4224 27.027C12.1793 27.4731 9.85429 27.244 7.74139 26.3687C5.62849 25.4934 3.82259 24.0112 2.55206 22.1096C1.28153 20.208 0.603432 17.9723 0.603516 15.6853C0.607061 12.6195 1.82655 9.68037 3.99444 7.51264C6.16233 5.34491 9.10157 4.12563 12.1673 4.12231ZM14.5563 12.6585C14.5563 11.7598 13.934 10.9904 13.0556 10.6739V14.888C14.9274 15.2712 16.3322 16.8401 16.3322 18.7128C16.3322 20.5855 14.9274 22.1536 13.0556 22.5375V23.5937C13.0556 23.8293 12.962 24.0553 12.7954 24.2219C12.6288 24.3885 12.4028 24.4821 12.1672 24.4821C11.9316 24.4821 11.7056 24.3885 11.539 24.2219C11.3724 24.0553 11.2789 23.8293 11.2789 23.5937V22.5375C9.40699 22.1536 8.00067 20.5847 8.00067 18.7128C8.00067 18.4771 8.09427 18.2512 8.26087 18.0846C8.42747 17.918 8.65343 17.8244 8.88904 17.8244C9.12464 17.8244 9.3506 17.918 9.5172 18.0846C9.6838 18.2512 9.7774 18.4771 9.7774 18.7128C9.7774 19.6107 10.3997 20.3801 11.2789 20.6965V16.4831C9.40699 16.0992 8.00067 14.5304 8.00067 12.6585C8.00067 10.7867 9.40699 9.21772 11.2789 8.83297V7.77723C11.2789 7.54162 11.3724 7.31566 11.539 7.14906C11.7056 6.98246 11.9316 6.88886 12.1672 6.88886C12.4028 6.88886 12.6288 6.98246 12.7954 7.14906C12.962 7.31566 13.0556 7.54162 13.0556 7.77723V8.83297C14.9274 9.21772 16.3322 10.7858 16.3322 12.6585C16.3322 12.894 16.2386 13.1199 16.0721 13.2864C15.9056 13.4529 15.6797 13.5465 15.4442 13.5465C15.2087 13.5465 14.9829 13.4529 14.8164 13.2864C14.6498 13.1199 14.5563 12.894 14.5563 12.6585ZM9.7774 12.6585C9.7774 11.7598 10.3997 10.9904 11.2789 10.6739V14.643C10.4001 14.3266 9.7774 13.5567 9.7774 12.6585ZM14.5563 18.7124C14.5563 19.6104 13.934 20.3798 13.0556 20.6962V16.7291C13.9336 17.0455 14.5563 17.8149 14.5563 18.7128V18.7124Z" fill="#525773"/>
</g>
<defs>
<clipPath id="clip0_24198_553">
<rect width="54" height="54" fill="white" transform="translate(0.5)"/>
</clipPath>
</defs>
</svg>
