<svg width="56" height="56" viewBox="0 0 56 56" fill="none" xmlns="http://www.w3.org/2000/svg">
<path d="M13.125 20.125C13.3571 20.125 13.5796 20.0328 13.7437 19.8687C13.9078 19.7046 14 19.4821 14 19.25V18.375C14 18.1429 13.9078 17.9204 13.7437 17.7563C13.5796 17.5922 13.3571 17.5 13.125 17.5C12.8929 17.5 12.6704 17.5922 12.5063 17.7563C12.3422 17.9204 12.25 18.1429 12.25 18.375V19.25C12.25 19.4821 12.3422 19.7046 12.5063 19.8687C12.6704 20.0328 12.8929 20.125 13.125 20.125Z" fill="#E0B15E"/>
<path d="M18.375 20.125C18.6071 20.125 18.8296 20.0328 18.9937 19.8687C19.1578 19.7046 19.25 19.4821 19.25 19.25V18.375C19.25 18.1429 19.1578 17.9204 18.9937 17.7563C18.8296 17.5922 18.6071 17.5 18.375 17.5C18.1429 17.5 17.9204 17.5922 17.7563 17.7563C17.5922 17.9204 17.5 18.1429 17.5 18.375V19.25C17.5 19.4821 17.5922 19.7046 17.7563 19.8687C17.9204 20.0328 18.1429 20.125 18.375 20.125Z" fill="#E0B15E"/>
<path d="M15.75 36.75C15.5179 36.75 15.2954 36.8422 15.1313 37.0063C14.9672 37.1704 14.875 37.3929 14.875 37.625V38.5C14.875 38.7321 14.9672 38.9546 15.1313 39.1187C15.2954 39.2828 15.5179 39.375 15.75 39.375C15.9821 39.375 16.2046 39.2828 16.3687 39.1187C16.5328 38.9546 16.625 38.7321 16.625 38.5V37.625C16.625 37.3929 16.5328 37.1704 16.3687 37.0063C16.2046 36.8422 15.9821 36.75 15.75 36.75Z" fill="#E0B15E"/>
<path d="M15.75 41.125C15.5179 41.125 15.2954 41.2172 15.1313 41.3813C14.9672 41.5454 14.875 41.7679 14.875 42V42.875C14.875 43.1071 14.9672 43.3296 15.1313 43.4937C15.2954 43.6578 15.5179 43.75 15.75 43.75C15.9821 43.75 16.2046 43.6578 16.3687 43.4937C16.5328 43.3296 16.625 43.1071 16.625 42.875V42C16.625 41.7679 16.5328 41.5454 16.3687 41.3813C16.2046 41.2172 15.9821 41.125 15.75 41.125Z" fill="#E0B15E"/>
<path d="M15.75 45.5C15.5179 45.5 15.2954 45.5922 15.1313 45.7563C14.9672 45.9204 14.875 46.1429 14.875 46.375V47.25C14.875 47.4821 14.9672 47.7046 15.1313 47.8687C15.2954 48.0328 15.5179 48.125 15.75 48.125C15.9821 48.125 16.2046 48.0328 16.3687 47.8687C16.5328 47.7046 16.625 47.4821 16.625 47.25V46.375C16.625 46.1429 16.5328 45.9204 16.3687 45.7563C16.2046 45.5922 15.9821 45.5 15.75 45.5Z" fill="#E0B15E"/>
<path d="M16.625 51.625V50.75C16.625 50.5179 16.5328 50.2954 16.3687 50.1313C16.2046 49.9672 15.9821 49.875 15.75 49.875C15.5179 49.875 15.2954 49.9672 15.1313 50.1313C14.9672 50.2954 14.875 50.5179 14.875 50.75V51.625C14.875 51.8571 14.9672 52.0796 15.1313 52.2437C15.2954 52.4078 15.5179 52.5 15.75 52.5C15.9821 52.5 16.2046 52.4078 16.3687 52.2437C16.5328 52.0796 16.625 51.8571 16.625 51.625Z" fill="#E0B15E"/>
<path d="M18.9932 22.1326C18.912 22.0512 18.8155 21.9867 18.7092 21.9427C18.603 21.8986 18.4891 21.876 18.3742 21.876C18.2592 21.876 18.1453 21.8986 18.0391 21.9427C17.9329 21.9867 17.8364 22.0512 17.7551 22.1326C17.223 22.6634 16.5021 22.9615 15.7505 22.9615C14.9989 22.9615 14.278 22.6634 13.7458 22.1326C13.5788 21.9839 13.3612 21.9048 13.1377 21.9116C12.9142 21.9183 12.7018 22.0103 12.544 22.1688C12.3863 22.3272 12.2951 22.54 12.2894 22.7636C12.2836 22.9871 12.3636 23.2043 12.513 23.3707C13.3736 24.2297 14.5398 24.7121 15.7557 24.7121C16.9716 24.7121 18.1379 24.2297 18.9985 23.3707C19.0795 23.2891 19.1436 23.1923 19.1872 23.0859C19.2308 22.9795 19.253 22.8656 19.2525 22.7506C19.252 22.6356 19.2288 22.5218 19.1844 22.4158C19.1399 22.3097 19.0749 22.2135 18.9932 22.1326Z" fill="#E0B15E"/>
<path d="M54.11 28.4288C54.11 28.42 50.6012 23.1438 50.6012 23.1438C50.522 23.0234 50.4142 22.9245 50.2875 22.8558C50.1608 22.7871 50.0191 22.7507 49.875 22.75H30.625C30.4809 22.7507 30.3392 22.7871 30.2125 22.8558C30.0858 22.9245 29.978 23.0234 29.8987 23.1438C29.8987 23.1438 26.39 28.42 26.39 28.4288C26.3033 28.5619 26.2549 28.7162 26.25 28.875V31.08C24.9567 30.2108 23.4333 29.7477 21.875 29.75H19.25V27.93C20.1823 27.3884 20.9774 26.6394 21.5737 25.7412C22.17 24.8429 22.5515 23.8194 22.6888 22.75H23.625C24.3206 22.7479 24.987 22.4707 25.4789 21.9789C25.9707 21.487 26.2479 20.8206 26.25 20.125V19.25C26.2488 18.8829 26.1702 18.5202 26.0195 18.1855C25.8687 17.8508 25.6491 17.5516 25.375 17.3075V11.375C25.3731 9.75112 24.7272 8.19428 23.579 7.04602C22.4307 5.89776 20.8739 5.25185 19.25 5.25H16.625C15.856 5.24992 15.1006 5.453 14.4353 5.83866C13.77 6.22432 13.2184 6.7789 12.8363 7.44625C12.4043 7.15561 11.8956 7.00025 11.375 7H10.5C9.33968 7 8.22688 7.46094 7.40641 8.28141C6.58594 9.10188 6.125 10.2147 6.125 11.375V17.3075C5.85088 17.5516 5.63128 17.8508 5.48051 18.1855C5.32975 18.5202 5.25121 18.8829 5.25 19.25V20.125C5.25208 20.8206 5.52931 21.487 6.02114 21.9789C6.51297 22.4707 7.17945 22.7479 7.875 22.75H8.81125C8.94845 23.8194 9.32999 24.8429 9.92631 25.7412C10.5226 26.6394 11.3177 27.3884 12.25 27.93V29.75H9.625C7.53742 29.7532 5.53626 30.584 4.06011 32.0601C2.58397 33.5363 1.75324 35.5374 1.75 37.625V53.375C1.75 53.6071 1.84219 53.8296 2.00628 53.9937C2.17038 54.1578 2.39294 54.25 2.625 54.25H28.875C29.1071 54.25 29.3296 54.1578 29.4937 53.9937C29.6578 53.8296 29.75 53.6071 29.75 53.375V49H53.375C53.6071 49 53.8296 48.9078 53.9937 48.7437C54.1578 48.5796 54.25 48.3571 54.25 48.125V28.875C54.2451 28.7162 54.1967 28.5619 54.11 28.4288ZM49.4025 24.5L51.7388 28H43.6187L43.0325 24.5H49.4025ZM39.2437 24.5H41.2563L41.8425 28H38.6575L39.2437 24.5ZM38.5 29.75H42V33.25H38.5V29.75ZM31.0975 24.5H37.4675L36.8813 28H28.7612L31.0975 24.5ZM24.5 19.25V20.125C24.5 20.3571 24.4078 20.5796 24.2437 20.7437C24.0796 20.9078 23.8571 21 23.625 21H22.75V18.375H23.625C23.8571 18.375 24.0796 18.4672 24.2437 18.6313C24.4078 18.7954 24.5 19.0179 24.5 19.25ZM8.75 21H7.875C7.64294 21 7.42038 20.9078 7.25628 20.7437C7.09219 20.5796 7 20.3571 7 20.125V19.25C7 19.0179 7.09219 18.7954 7.25628 18.6313C7.42038 18.4672 7.64294 18.375 7.875 18.375H8.75V21ZM8.75 15.75V16.625H7.875V11.375C7.87708 10.6794 8.15431 10.013 8.64614 9.52114C9.13797 9.02931 9.80445 8.75208 10.5 8.75H11.375C11.6071 8.75 11.8296 8.84219 11.9937 9.00628C12.1578 9.17038 12.25 9.39294 12.25 9.625C12.25 9.85706 12.3422 10.0796 12.5063 10.2437C12.6704 10.4078 12.8929 10.5 13.125 10.5C13.3571 10.5 13.5796 10.4078 13.7437 10.2437C13.9078 10.0796 14 9.85706 14 9.625C14.0021 8.92945 14.2793 8.26297 14.7711 7.77114C15.263 7.27931 15.9294 7.00208 16.625 7H19.25C20.4103 7 21.5231 7.46094 22.3436 8.28141C23.1641 9.10188 23.625 10.2147 23.625 11.375V16.625H22.75V15.75C22.7479 15.0544 22.4707 14.388 21.9789 13.8961C21.487 13.4043 20.8206 13.1271 20.125 13.125H11.375C10.6794 13.1271 10.013 13.4043 9.52114 13.8961C9.02931 14.388 8.75208 15.0544 8.75 15.75ZM10.5 21.875V15.75C10.5 15.5179 10.5922 15.2954 10.7563 15.1313C10.9204 14.9672 11.1429 14.875 11.375 14.875H20.125C20.3571 14.875 20.5796 14.9672 20.7437 15.1313C20.9078 15.2954 21 15.5179 21 15.75V21.875C21 23.2674 20.4469 24.6027 19.4623 25.5873C18.4777 26.5719 17.1424 27.125 15.75 27.125C14.3576 27.125 13.0223 26.5719 12.0377 25.5873C11.0531 24.6027 10.5 23.2674 10.5 21.875ZM18.8125 31.5H19.25V34.58L17.1325 33.74L18.8125 31.5ZM15.75 32.6638L14 30.3362V28.6475C15.1469 28.9508 16.3531 28.9508 17.5 28.6475V30.3362L15.75 32.6638ZM12.25 31.5H12.6875L14.3675 33.74L12.25 34.58V31.5ZM28 52.5H24.5V39.375C24.5 39.1429 24.4078 38.9204 24.2437 38.7563C24.0796 38.5922 23.8571 38.5 23.625 38.5C23.3929 38.5 23.1704 38.5922 23.0063 38.7563C22.8422 38.9204 22.75 39.1429 22.75 39.375V52.5H8.75V39.375C8.75 39.1429 8.65781 38.9204 8.49372 38.7563C8.32962 38.5922 8.10706 38.5 7.875 38.5C7.64294 38.5 7.42038 38.5922 7.25628 38.7563C7.09219 38.9204 7 39.1429 7 39.375V52.5H3.5V37.625C3.50185 36.0011 4.14776 34.4443 5.29602 33.296C6.44428 32.1478 8.00112 31.5019 9.625 31.5H10.5V35.875C10.4998 36.0183 10.5348 36.1595 10.6019 36.2861C10.669 36.4128 10.7663 36.521 10.885 36.6013C11.0304 36.6975 11.2007 36.7492 11.375 36.75C11.4859 36.7517 11.5961 36.7309 11.6987 36.6888L15.75 35.07L19.8012 36.6888C19.9039 36.7309 20.014 36.7517 20.125 36.75C20.2993 36.7492 20.4696 36.6975 20.615 36.6013C20.7337 36.521 20.831 36.4128 20.8981 36.2861C20.9652 36.1595 21.0002 36.0183 21 35.875V31.5H21.875C23.4989 31.5019 25.0557 32.1478 26.204 33.296C27.3522 34.4443 27.9981 36.0011 28 37.625V52.5ZM52.5 47.25H29.75V37.625C29.7527 35.8275 29.1346 34.0842 28 32.69V29.75H36.75V34.125C36.75 34.3571 36.8422 34.5796 37.0063 34.7437C37.1704 34.9078 37.3929 35 37.625 35H42.875C43.1071 35 43.3296 34.9078 43.4937 34.7437C43.6578 34.5796 43.75 34.3571 43.75 34.125V29.75H52.5V47.25Z" fill="#E0B15E"/>
<path d="M39.375 9.625H41.125C41.3571 9.625 41.5796 9.71719 41.7437 9.88128C41.9078 10.0454 42 10.2679 42 10.5C42 10.7321 42.0922 10.9546 42.2563 11.1187C42.4204 11.2828 42.6429 11.375 42.875 11.375C43.1071 11.375 43.3296 11.2828 43.4937 11.1187C43.6578 10.9546 43.75 10.7321 43.75 10.5C43.75 9.80381 43.4734 9.13613 42.9812 8.64384C42.4889 8.15156 41.8212 7.875 41.125 7.875V7C41.125 6.76794 41.0328 6.54538 40.8687 6.38128C40.7046 6.21719 40.4821 6.125 40.25 6.125C40.0179 6.125 39.7954 6.21719 39.6313 6.38128C39.4672 6.54538 39.375 6.76794 39.375 7V7.875C38.6788 7.875 38.0111 8.15156 37.5188 8.64384C37.0266 9.13613 36.75 9.80381 36.75 10.5C36.75 11.1962 37.0266 11.8639 37.5188 12.3562C38.0111 12.8484 38.6788 13.125 39.375 13.125H41.125C41.3571 13.125 41.5796 13.2172 41.7437 13.3813C41.9078 13.5454 42 13.7679 42 14C42 14.2321 41.9078 14.4546 41.7437 14.6187C41.5796 14.7828 41.3571 14.875 41.125 14.875H39.375C39.1429 14.875 38.9204 14.7828 38.7563 14.6187C38.5922 14.4546 38.5 14.2321 38.5 14C38.5 13.7679 38.4078 13.5454 38.2437 13.3813C38.0796 13.2172 37.8571 13.125 37.625 13.125C37.3929 13.125 37.1704 13.2172 37.0063 13.3813C36.8422 13.5454 36.75 13.7679 36.75 14C36.75 14.6962 37.0266 15.3639 37.5188 15.8562C38.0111 16.3484 38.6788 16.625 39.375 16.625V17.5C39.375 17.7321 39.4672 17.9546 39.6313 18.1187C39.7954 18.2828 40.0179 18.375 40.25 18.375C40.4821 18.375 40.7046 18.2828 40.8687 18.1187C41.0328 17.9546 41.125 17.7321 41.125 17.5V16.625C41.8212 16.625 42.4889 16.3484 42.9812 15.8562C43.4734 15.3639 43.75 14.6962 43.75 14C43.75 13.3038 43.4734 12.6361 42.9812 12.1438C42.4889 11.6516 41.8212 11.375 41.125 11.375H39.375C39.1429 11.375 38.9204 11.2828 38.7563 11.1187C38.5922 10.9546 38.5 10.7321 38.5 10.5C38.5 10.2679 38.5922 10.0454 38.7563 9.88128C38.9204 9.71719 39.1429 9.625 39.375 9.625Z" fill="#E0B15E"/>
<path d="M40.25 3.5C38.5194 3.5 36.8277 4.01318 35.3888 4.97464C33.9498 5.9361 32.8283 7.30267 32.1661 8.90152C31.5038 10.5004 31.3305 12.2597 31.6681 13.957C32.0058 15.6544 32.8391 17.2135 34.0628 18.4372C35.2865 19.6609 36.8456 20.4943 38.543 20.8319C40.2403 21.1695 41.9996 20.9962 43.5985 20.3339C45.1973 19.6717 46.5639 18.5502 47.5254 17.1112C48.4868 15.6723 49 13.9806 49 12.25C48.9975 9.93014 48.0748 7.70602 46.4344 6.06563C44.794 4.42524 42.5699 3.50255 40.25 3.5ZM40.25 19.25C38.8655 19.25 37.5122 18.8395 36.361 18.0703C35.2099 17.3011 34.3127 16.2079 33.7828 14.9288C33.253 13.6497 33.1144 12.2422 33.3845 10.8844C33.6546 9.5265 34.3213 8.27922 35.3003 7.30025C36.2792 6.32128 37.5265 5.6546 38.8844 5.3845C40.2422 5.11441 41.6497 5.25303 42.9288 5.78284C44.2079 6.31266 45.3011 7.20986 46.0703 8.36101C46.8395 9.51215 47.25 10.8655 47.25 12.25C47.2479 14.1059 46.5098 15.8851 45.1975 17.1974C43.8851 18.5097 42.1059 19.2479 40.25 19.25Z" fill="#E0B15E"/>
<path d="M50.4946 39.6312L47.8696 37.0062C47.7055 36.8422 47.483 36.75 47.251 36.75C47.0189 36.75 46.7964 36.8422 46.6323 37.0062L44.0073 39.6312C43.848 39.7962 43.7598 40.0172 43.7618 40.2467C43.7637 40.4761 43.8558 40.6955 44.018 40.8578C44.1802 41.02 44.3997 41.112 44.6291 41.114C44.8585 41.116 45.0796 41.0278 45.2446 40.8684L46.376 39.7371V44.6248C46.376 44.8569 46.4682 45.0794 46.6322 45.2435C46.7963 45.4076 47.0189 45.4998 47.251 45.4998C47.483 45.4998 47.7056 45.4076 47.8697 45.2435C48.0338 45.0794 48.126 44.8569 48.126 44.6248V39.7371L49.2573 40.8684C49.4224 41.0278 49.6434 41.116 49.8728 41.114C50.1022 41.112 50.3217 41.02 50.4839 40.8578C50.6462 40.6955 50.7382 40.4761 50.7402 40.2467C50.7422 40.0172 50.654 39.7962 50.4946 39.6312Z" fill="#E0B15E"/>
</svg>
